        Supernatural.The.Anime.Series.Part.2.BRRip.XviD-RLF
        ~~~~~~~~~~~~~~~~~~~~~~~~~~~~~~~~~~~~~~~~~~~~~~~~~~~

                                            
General:


Complete name                    : rlf-supernatural.anime.avi
Episodes nr.                     : 01-07
Format                           : AVI
Format/Info                      : Audio Video Interleave
File size                        : 163 MiB
Duration                         : 22mn 44s (1 episode)
Overall bit rate                 : 1 000 Kbps
Language                         : English
Subs                             : None
Encoder                          : Ralf


Video:

                     
Format                           : MPEG-4 Visual
Format profile                   : Advanced Simple@L5
Format settings, BVOP            : 2
Format settings, QPel            : No
Format settings, GMC             : No warppoints
Format settings, Matrix          : H.263
Muxing mode                      : Packed bitstream
Codec ID/Hint                    : XviD
Duration                         : 22mn 44s
Bit rate                         : 860 Kbps
Width                            : 688 pixels
Height                           : 384 pixels
Display aspect ratio             : 16:9
Frame rate                       : 23.976 fps
Color space                      : YUV
Chroma subsampling               : 4:2:0
Bit depth                        : 8 bits
Scan type                        : Progressive
Bits/(Pixel*Frame)               : 0.136
Stream size                      : 140 MiB (86%)
Writing library                  : XviD 1.2.1

                                             
Audio:

                     
Format                           : MPEG Audio
Format profile                   : Layer 3
Codec ID/Hint                    : MP3
Duration                         : 22mn 44s
Bit rate mode                    : Constant
Bit rate                         : 128 Kbps
Channel(s)                       : 2 channels
Sampling rate                    : 48.0 KHz
Stream size                      : 20.8 MiB (13%)
Alignment                        : Split accross interleaves
Interleave, duration             : 24 ms (0.58 video frame)
 


MOVIE INFO:

               
Supernatural: The Anime Series revisits the Winchester brothers journey 
down the backroads of America as they search for clues to their fathers 
disappearance,  hunt  down the  supernatural in all its unearthly forms, 
and enter into the unexpected mystery of their destinies. The Supernatural
anime  episodes  mirror  the story arc of  the series first two seasons, 
providing  supplemental  stories ranging from prequels and spin-offs to
untold tales that fit within the Supernatural mythology.


Episodes list:


E08 - Everlasting Love  , E09 - The Spirit of Vegas  , E10 - Moonlight  , 
E11 - Nightmare  , E12 - Darkness Calling  , E13 - What Lives in the Lake
                 E14 - Reunion  , E15 - Devils Trap


                               
                    http://www.imdb.com/title/tt1679482/
     http://www.filmweb.pl/serial/Supernatural+The+Animation-2011-577999


SOURCE:


UNTOUCHABLES 720p.BluRay.x264 (BIG THX)


SCREENS:

 
http://www.leetleech.org/images/89656077745583806478.png 
http://www.leetleech.org/images/77340722793074814703.png 
http://www.leetleech.org/images/06824334775735291992.png 
http://www.leetleech.org/images/19289916768982030908.png


